<svg data-v-423bf9ae="" xmlns="http://www.w3.org/2000/svg" viewBox="0 0 619 90" class="iconLeft"><!----><!----><!----><g data-v-423bf9ae="" id="a3b21459-e01c-4b06-b5ab-4eb476c7cc76" fill="#0BDED0" transform="matrix(5.703421805055199,0,0,5.703421805055199,113.65382448650368,2.1672990312771674)"><path d="M0.38 3.64L0.74 3.64C1.44 3.64 1.57 3.67 1.57 4.10L1.57 11.26C1.57 11.86 1.57 11.87 0.85 11.87L0.49 11.87L0.50 12.42L4.09 12.42L4.12 11.87L3.71 11.87C2.80 11.87 2.70 11.83 2.70 11.26L2.70 7.59L7.25 7.59L7.25 11.26C7.25 11.82 7.21 11.87 6.59 11.87L6.19 11.87L6.20 12.42L9.69 12.42L9.70 11.87L9.23 11.87C8.46 11.87 8.39 11.83 8.39 11.30L8.39 4.23C8.39 3.70 8.48 3.64 9.09 3.64L9.48 3.64L9.48 3.08L5.92 3.08L5.94 3.64L6.52 3.64C7.24 3.64 7.25 3.67 7.25 4.14L7.25 6.92L2.70 6.92L2.70 4.26C2.70 3.70 2.84 3.64 3.50 3.64L3.86 3.64L3.86 3.08L0.38 3.08ZM11.51 4.10C11.51 4.27 11.84 4.73 12.10 4.73C12.25 4.73 12.70 4.31 12.70 4.12C12.70 3.89 12.25 3.51 12.10 3.51C11.91 3.51 11.51 3.88 11.51 4.10ZM10.46 7.15L10.47 7.57C10.91 7.49 11.17 7.46 11.24 7.46C11.40 7.46 11.45 7.55 11.45 7.91L11.45 11.65C11.45 11.94 11.34 11.97 10.64 11.97L10.51 11.97L10.51 12.42L13.55 12.42L13.55 11.97L13.30 11.97C12.47 11.97 12.43 11.93 12.43 11.59L12.43 6.73C11.66 6.94 11.07 7.06 10.46 7.15ZM14.03 7.60C14.41 7.53 14.64 7.46 14.78 7.46C15.01 7.46 15.01 7.63 15.01 8.20L15.01 11.66C15.01 11.94 14.90 11.97 14.45 11.97L14.06 11.97L14.07 12.42L16.80 12.42L16.80 11.97L16.73 11.97C16.00 11.97 15.99 11.94 15.99 11.66L15.99 8.12C15.99 8.12 16.62 7.67 17.29 7.67C17.92 7.67 18.17 8.04 18.17 8.74L18.17 11.75C18.17 11.96 18.02 11.97 17.47 11.97L17.30 11.97L17.32 12.42L19.98 12.42L19.98 11.97L19.85 11.97C19.21 11.97 19.15 11.96 19.15 11.73L19.15 9.14C19.15 8.57 19.10 8.13 19.10 8.13C19.10 8.13 19.63 7.67 20.48 7.67C21.06 7.67 21.34 7.85 21.34 8.74L21.34 11.63C21.34 11.97 21.24 11.97 20.51 11.97L20.51 12.42L23.23 12.42L23.23 11.97L23.09 11.97C22.39 11.97 22.32 11.96 22.32 11.62L22.32 8.74C22.32 7.97 22.23 6.89 20.97 6.89C20.24 6.89 19.47 7.45 19.03 7.78C19.00 7.69 18.77 6.89 17.93 6.89C17.01 6.89 16.18 7.67 15.96 7.80C15.96 7.25 15.99 6.78 15.99 6.78C15.99 6.78 14.63 7.08 14.03 7.17ZM23.84 11.51C23.84 12.26 24.54 12.57 25.13 12.57C25.75 12.57 26.40 12.17 26.77 11.68C27.06 12.04 27.22 12.31 27.71 12.66C27.75 12.64 28.22 12.36 28.55 12.15C28.64 12.10 28.67 12.04 28.67 12.00C28.67 11.96 28.64 11.91 28.55 11.89C27.73 11.66 27.64 11.21 27.64 10.61L27.64 7.99C27.64 6.97 26.73 6.87 26.40 6.87C24.39 6.87 23.95 8.13 23.95 8.44C23.95 8.61 24.00 8.95 24.28 8.95C24.39 8.95 24.72 8.81 24.72 8.58C24.72 8.43 24.64 8.22 24.58 7.97C24.58 7.97 24.74 7.53 25.72 7.53C26.57 7.53 26.66 7.98 26.66 8.53L26.66 9.37C25.07 9.37 23.84 10.36 23.84 11.51ZM24.82 11.10C24.82 10.49 25.49 9.74 26.66 9.74L26.66 11.05C26.66 11.35 26.49 11.82 25.66 11.82C25.05 11.82 24.82 11.48 24.82 11.10ZM29.02 11.97L29.04 12.42L31.77 12.42L31.79 11.97L31.61 11.97C30.77 11.97 30.77 11.93 30.77 11.49L30.77 8.12C30.77 8.12 31.61 7.67 32.28 7.67C32.91 7.67 33.19 7.94 33.19 8.74L33.19 11.55C33.19 11.94 33.11 11.97 32.72 11.97L32.40 11.97L32.41 12.42L35.01 12.42L35.03 11.97C34.37 11.97 34.17 11.97 34.17 11.55L34.17 9.14C34.17 8.04 34.16 6.89 32.84 6.89C31.72 6.89 30.95 7.69 30.73 7.78C30.73 7.27 30.74 7.13 30.77 6.79L29.05 7.14L29.05 7.57C29.43 7.49 29.47 7.46 29.58 7.46C29.78 7.46 29.79 7.59 29.79 8.16L29.79 11.49C29.79 11.94 29.79 11.97 29.16 11.97ZM35.50 10.44L35.76 12.77L36.16 12.74C36.16 12.68 36.15 12.64 36.15 12.60C36.15 12.50 36.18 12.42 36.27 12.42C36.37 12.42 37.00 12.60 37.65 12.60C38.86 12.60 39.47 11.84 39.47 11.02C39.47 10.28 38.89 9.86 38.23 9.41L37.60 8.99C37.18 8.69 36.83 8.48 36.83 8.05C36.83 7.67 37.24 7.38 37.63 7.38C38.50 7.38 38.95 7.84 38.95 7.84L38.96 8.83L39.41 8.83L39.41 6.72L38.96 6.71C38.96 7.00 38.95 7.13 38.84 7.13C38.70 7.13 38.32 6.87 37.62 6.87C36.65 6.87 35.91 7.52 35.91 8.27C35.91 8.99 36.39 9.45 36.96 9.83L37.46 10.16C37.98 10.50 38.43 10.81 38.43 11.33C38.43 11.69 38.18 12.12 37.62 12.12C36.82 12.12 36.08 11.58 36.08 11.58L35.94 10.42ZM40.31 11.97L40.32 12.42L43.04 12.42L43.05 11.97L42.80 11.97C42.22 11.97 42.08 11.94 42.08 11.65L42.08 8.34C42.08 8.34 42.84 7.67 43.55 7.67C43.97 7.67 44.51 7.91 44.51 8.74L44.51 11.58C44.51 11.94 44.37 11.97 43.83 11.97L43.61 11.97L43.62 12.42L46.31 12.42L46.31 11.97L46.09 11.97C45.51 11.97 45.49 11.94 45.49 11.56L45.49 9.14C45.49 8.04 45.46 6.89 44.14 6.89C43.25 6.89 42.45 7.63 42.08 7.92L42.08 2.25C41.27 2.38 40.74 2.46 40.31 2.51L40.31 3.00C40.47 2.97 40.80 2.91 40.88 2.91C41.03 2.91 41.10 3.00 41.10 3.33L41.10 11.65C41.10 11.96 40.94 11.97 40.46 11.97ZM46.58 7.42C46.77 7.41 46.93 7.38 47.04 7.38C47.24 7.38 47.31 7.43 47.31 7.73L47.31 10.49C47.31 11.55 47.56 12.63 48.96 12.63C49.91 12.63 50.75 11.72 50.75 11.72C50.81 12.07 50.83 12.39 50.85 12.71C51.46 12.54 51.95 12.39 52.57 12.26L52.57 11.82C52.28 11.90 52.07 11.97 51.94 11.97C51.73 11.97 51.69 11.90 51.69 10.86L51.69 6.79C50.92 6.92 50.39 6.99 49.77 7.03L49.81 7.46C49.83 7.45 50.23 7.39 50.43 7.39C50.61 7.39 50.71 7.43 50.71 7.81L50.71 11.23C50.71 11.23 50.39 11.76 49.45 11.76C48.40 11.76 48.29 11.12 48.29 10.29L48.29 6.79C47.59 6.92 47.03 6.96 46.58 7.00ZM55.78 3.64L56.17 3.64C56.67 3.64 56.90 3.67 56.90 4.14L56.90 11.47C56.90 11.83 56.77 11.87 56.31 11.87L55.89 11.87L55.89 12.42L57.88 12.42C59.43 12.42 61.03 12.38 61.89 11.59C62.34 11.19 62.52 10.60 62.52 10.01C62.52 8.95 61.96 7.70 60.40 7.35C61.26 7.10 62.19 6.37 62.19 5.38C62.19 4.31 61.46 3.08 58.90 3.08L55.80 3.08ZM58.00 7.60C59.19 7.60 61.19 7.95 61.19 9.91C61.19 10.67 60.91 11.80 58.94 11.80C58.23 11.80 58.03 11.75 58.03 11.35ZM58.03 7.20L58.03 4.02C58.03 3.81 58.13 3.70 58.45 3.70C60.28 3.70 60.89 4.80 60.89 5.54C60.89 6.24 60.35 7.20 59.40 7.20ZM63.59 11.51C63.59 12.26 64.29 12.57 64.88 12.57C65.49 12.57 66.15 12.17 66.51 11.68C66.81 12.04 66.96 12.31 67.45 12.66C67.49 12.64 67.97 12.36 68.29 12.15C68.39 12.10 68.42 12.04 68.42 12.00C68.42 11.96 68.39 11.91 68.29 11.89C67.48 11.66 67.38 11.21 67.38 10.61L67.38 7.99C67.38 6.97 66.47 6.87 66.15 6.87C64.13 6.87 63.70 8.13 63.70 8.44C63.70 8.61 63.74 8.95 64.02 8.95C64.13 8.95 64.47 8.81 64.47 8.58C64.47 8.43 64.39 8.22 64.33 7.97C64.33 7.97 64.48 7.53 65.46 7.53C66.32 7.53 66.40 7.98 66.40 8.53L66.40 9.37C64.82 9.37 63.59 10.36 63.59 11.51ZM64.57 11.10C64.57 10.49 65.24 9.74 66.40 9.74L66.40 11.05C66.40 11.35 66.23 11.82 65.41 11.82C64.79 11.82 64.57 11.48 64.57 11.10ZM68.70 7.42C68.89 7.41 69.05 7.38 69.16 7.38C69.36 7.38 69.43 7.43 69.43 7.73L69.43 10.49C69.43 11.55 69.68 12.63 71.08 12.63C72.03 12.63 72.87 11.72 72.87 11.72C72.93 12.07 72.95 12.39 72.97 12.71C73.58 12.54 74.07 12.39 74.69 12.26L74.69 11.82C74.40 11.90 74.19 11.97 74.06 11.97C73.85 11.97 73.81 11.90 73.81 10.86L73.81 6.79C73.04 6.92 72.51 6.99 71.89 7.03L71.93 7.46C71.95 7.45 72.35 7.39 72.55 7.39C72.73 7.39 72.83 7.43 72.83 7.81L72.83 11.23C72.83 11.23 72.51 11.76 71.57 11.76C70.52 11.76 70.41 11.12 70.41 10.29L70.41 6.79C69.71 6.92 69.15 6.96 68.70 7.00ZM75.17 7.20L75.21 7.63C75.50 7.57 75.94 7.48 76.06 7.48C76.23 7.48 76.26 7.60 76.26 7.98L76.26 11.40C76.26 11.94 76.22 11.97 75.64 11.97L75.38 11.97L75.38 12.42L78.72 12.42L78.72 11.97L78.12 11.97C77.31 11.97 77.24 11.91 77.24 11.40L77.24 9.03C77.24 8.48 77.94 8.04 78.39 8.04C78.58 8.04 78.72 8.13 78.72 8.36L78.72 8.54L78.95 8.62L79.48 7.24C79.48 7.24 79.30 6.89 78.71 6.89C77.90 6.89 77.25 8.26 77.21 8.32L77.21 6.73C75.45 7.17 75.75 7.08 75.17 7.20ZM80.09 11.51C80.09 12.26 80.79 12.57 81.38 12.57C82.00 12.57 82.66 12.17 83.02 11.68C83.31 12.04 83.47 12.31 83.96 12.66C84.00 12.64 84.48 12.36 84.80 12.15C84.90 12.10 84.92 12.04 84.92 12.00C84.92 11.96 84.90 11.91 84.80 11.89C83.99 11.66 83.89 11.21 83.89 10.61L83.89 7.99C83.89 6.97 82.98 6.87 82.66 6.87C80.64 6.87 80.21 8.13 80.21 8.44C80.21 8.61 80.25 8.95 80.53 8.95C80.64 8.95 80.98 8.81 80.98 8.58C80.98 8.43 80.89 8.22 80.84 7.97C80.84 7.97 80.99 7.53 81.97 7.53C82.82 7.53 82.91 7.98 82.91 8.53L82.91 9.37C81.33 9.37 80.09 10.36 80.09 11.51ZM81.07 11.10C81.07 10.49 81.75 9.74 82.91 9.74L82.91 11.05C82.91 11.35 82.74 11.82 81.91 11.82C81.30 11.82 81.07 11.48 81.07 11.10ZM86.46 4.10C86.46 4.27 86.80 4.73 87.05 4.73C87.21 4.73 87.65 4.31 87.65 4.12C87.65 3.89 87.21 3.51 87.05 3.51C86.87 3.51 86.46 3.88 86.46 4.10ZM85.41 7.15L85.43 7.57C85.86 7.49 86.13 7.46 86.20 7.46C86.35 7.46 86.41 7.55 86.41 7.91L86.41 11.65C86.41 11.94 86.30 11.97 85.60 11.97L85.47 11.97L85.47 12.42L88.51 12.42L88.51 11.97L88.26 11.97C87.43 11.97 87.39 11.93 87.39 11.59L87.39 6.73C86.62 6.94 86.03 7.06 85.41 7.15Z"></path></g><!----><g data-v-423bf9ae="" id="085cf460-3285-4a58-a765-129e00c269e2" transform="matrix(2.994410458179972,0,0,2.994410458179972,0.08943266912044834,-1.9385669710569857)" stroke="none" fill="#0BDED0"><path d="M17.572 23.933l4.106 7.095L32 13.189h-8.981V7.582L11.51.972 0 7.582v13.222l11.51 6.611 6.062-3.482zm10.96-8.744l-6.855 11.846-6.855-11.846h13.71z"></path></g><!----></svg>